<svg width="82" height="48" viewBox="0 0 82 48" fill="none" xmlns="http://www.w3.org/2000/svg">
<path d="M-3.8147e-06 41.25V0H8.25V34.2188H16.7344V41.25H-3.8147e-06ZM27.2362 41.625C20.2362 41.625 16.7362 37.9922 16.7362 30.7266V16.6172C16.7362 13.3047 17.6659 10.6641 19.5253 8.69531C21.3847 6.71094 23.955 5.71875 27.2362 5.71875C30.5331 5.71875 33.1112 6.71094 34.9706 8.69531C36.83 10.6641 37.7597 13.3047 37.7597 16.6172V30.7266C37.7597 37.9922 34.2519 41.625 27.2362 41.625ZM27.2362 35.1562C27.9394 35.1562 28.4394 34.9062 28.7362 34.4062C29.0487 33.8906 29.205 33.2422 29.205 32.4609V15.2812C29.205 13.2344 28.5487 12.2109 27.2362 12.2109C25.9237 12.2109 25.2675 13.2344 25.2675 15.2812V32.4609C25.2675 33.2422 25.4159 33.8906 25.7128 34.4062C26.0253 34.9062 26.5331 35.1562 27.2362 35.1562ZM48.4256 47.3438C46.8006 47.3438 45.4022 47.2578 44.2303 47.0859C43.0741 46.9297 42.035 46.6406 41.1131 46.2188C40.1912 45.7969 39.2694 45.2031 38.3475 44.4375L41.1834 39.5859C43.2303 40.8047 45.2772 41.4141 47.3241 41.4141C48.6678 41.4141 49.6678 40.9844 50.3241 40.125C50.9803 39.2656 51.3084 38.1484 51.3084 36.7734V33.3281C50.6366 35.7344 48.8475 36.9375 45.9412 36.9375C44.2694 36.9375 42.9178 36.5391 41.8866 35.7422C40.8553 34.9453 40.1053 33.8672 39.6366 32.5078C39.1678 31.1484 38.9334 29.6328 38.9334 27.9609V15.3281C38.9334 13.4375 39.1366 11.7734 39.5428 10.3359C39.9491 8.88281 40.66 7.75 41.6756 6.9375C42.6912 6.125 44.1131 5.71875 45.9412 5.71875C47.4881 5.71875 48.6912 6.10938 49.5506 6.89062C50.4256 7.67188 51.0116 8.72656 51.3084 10.0547V6.09375H59.8631V36.2344C59.8631 40.2188 58.9412 43.0625 57.0975 44.7656C55.2694 46.4844 52.3787 47.3438 48.4256 47.3438ZM49.3397 30.6094C50.6522 30.6094 51.3084 29.4219 51.3084 27.0469V15.0938C51.3084 14.4531 51.1209 13.7969 50.7459 13.125C50.3866 12.4531 49.8866 12.1172 49.2459 12.1172C48.4334 12.1172 47.9256 12.4219 47.7225 13.0312C47.5194 13.625 47.4178 14.3125 47.4178 15.0938V27.0469C47.4178 27.8906 47.5194 28.6953 47.7225 29.4609C47.9412 30.2266 48.4803 30.6094 49.3397 30.6094ZM71.4431 41.625C64.4431 41.625 60.9431 37.9922 60.9431 30.7266V16.6172C60.9431 13.3047 61.8728 10.6641 63.7322 8.69531C65.5916 6.71094 68.1619 5.71875 71.4431 5.71875C74.74 5.71875 77.3181 6.71094 79.1775 8.69531C81.0369 10.6641 81.9666 13.3047 81.9666 16.6172V30.7266C81.9666 37.9922 78.4587 41.625 71.4431 41.625ZM71.4431 35.1562C72.1462 35.1562 72.6462 34.9062 72.9431 34.4062C73.2556 33.8906 73.4119 33.2422 73.4119 32.4609V15.2812C73.4119 13.2344 72.7556 12.2109 71.4431 12.2109C70.1306 12.2109 69.4744 13.2344 69.4744 15.2812V32.4609C69.4744 33.2422 69.6228 33.8906 69.9197 34.4062C70.2322 34.9062 70.74 35.1562 71.4431 35.1562Z" fill="url(#paint0_linear_1_1452)"/>
<defs>
<linearGradient id="paint0_linear_1_1452" x1="40.7841" y1="-14.75" x2="40.7841" y2="57.25" gradientUnits="userSpaceOnUse">
<stop stop-color="#4757E4"/>
<stop offset="1" stop-color="#FF4343"/>
</linearGradient>
</defs>
</svg>
