<svg width="30" height="30" viewBox="0 0 30 30" fill="none" xmlns="http://www.w3.org/2000/svg">
<path d="M23.75 3.5957H11.875C11.7092 3.5957 11.5503 3.66155 11.4331 3.77876C11.3158 3.89597 11.25 4.05494 11.25 4.2207C11.25 4.38646 11.3158 4.54543 11.4331 4.66264C11.5503 4.77986 11.7092 4.8457 11.875 4.8457H12.5V7.3457C12.5 7.51146 12.5658 7.67043 12.6831 7.78764C12.8003 7.90485 12.9592 7.9707 13.125 7.9707C13.2908 7.9707 13.4497 7.90485 13.5669 7.78764C13.6842 7.67043 13.75 7.51146 13.75 7.3457V4.8457H15.625V7.3457C15.625 7.51146 15.6908 7.67043 15.8081 7.78764C15.9253 7.90485 16.0842 7.9707 16.25 7.9707C16.4158 7.9707 16.5747 7.90485 16.6919 7.78764C16.8092 7.67043 16.875 7.51146 16.875 7.3457V4.8457H18.75V7.3457C18.75 7.51146 18.8158 7.67043 18.9331 7.78764C19.0503 7.90485 19.2092 7.9707 19.375 7.9707C19.5408 7.9707 19.6997 7.90485 19.8169 7.78764C19.9342 7.67043 20 7.51146 20 7.3457V4.8457H21.875V7.3457C21.875 7.51146 21.9408 7.67043 22.0581 7.78764C22.1753 7.90485 22.3342 7.9707 22.5 7.9707C22.6658 7.9707 22.8247 7.90485 22.9419 7.78764C23.0592 7.67043 23.125 7.51146 23.125 7.3457V4.8457H23.75C23.9158 4.8457 24.0747 4.77986 24.1919 4.66264C24.3092 4.54543 24.375 4.38646 24.375 4.2207C24.375 4.05494 24.3092 3.89597 24.1919 3.77876C24.0747 3.66155 23.9158 3.5957 23.75 3.5957Z" fill="url(#paint0_linear_1_424)"/>
<path d="M15.625 7.3457C15.625 7.51146 15.6908 7.67043 15.8081 7.78764C15.9253 7.90486 16.0842 7.9707 16.25 7.9707C16.4158 7.9707 16.5747 7.90486 16.6919 7.78764C16.8092 7.67043 16.875 7.51146 16.875 7.3457V4.8457H15.625V7.3457Z" fill="url(#paint1_linear_1_424)"/>
<path d="M12.5 7.3457C12.5 7.51146 12.5658 7.67043 12.6831 7.78764C12.8003 7.90486 12.9592 7.9707 13.125 7.9707C13.2908 7.9707 13.4497 7.90486 13.5669 7.78764C13.6842 7.67043 13.75 7.51146 13.75 7.3457V4.8457H12.5V7.3457Z" fill="url(#paint2_linear_1_424)"/>
<path d="M18.75 7.3457C18.75 7.51146 18.8158 7.67043 18.9331 7.78764C19.0503 7.90486 19.2092 7.9707 19.375 7.9707C19.5408 7.9707 19.6997 7.90486 19.8169 7.78764C19.9342 7.67043 20 7.51146 20 7.3457V4.8457H18.75V7.3457Z" fill="url(#paint3_linear_1_424)"/>
<path d="M21.875 7.3457C21.875 7.51146 21.9408 7.67043 22.0581 7.78764C22.1753 7.90486 22.3342 7.9707 22.5 7.9707C22.6658 7.9707 22.8247 7.90486 22.9419 7.78764C23.0592 7.67043 23.125 7.51146 23.125 7.3457V4.8457H21.875V7.3457Z" fill="url(#paint4_linear_1_424)"/>
<path d="M28.125 7.3457H11.2075C10.6757 7.34594 10.1578 7.51575 9.72914 7.83046C9.30045 8.14518 8.98329 8.58839 8.82375 9.0957L5.625 19.2207H25.625V9.8457L28.75 9.2207V7.9707C28.75 7.80494 28.6842 7.64597 28.5669 7.52876C28.4497 7.41155 28.2908 7.3457 28.125 7.3457Z" fill="url(#paint5_linear_1_424)"/>
<path d="M7.40125 13.5957L5.625 19.2207H25.625V13.5957H7.40125Z" fill="url(#paint6_linear_1_424)"/>
<path d="M11.3875 13.5957C11.2025 13.5957 11.0199 13.5546 10.8527 13.4755C10.6855 13.3963 10.5379 13.2811 10.4207 13.138C10.3034 12.9949 10.2194 12.8276 10.1746 12.6481C10.1299 12.4686 10.1255 12.2815 10.1619 12.1001L10.5369 10.2251C10.5943 9.94225 10.7475 9.68789 10.9707 9.50491C11.1938 9.32194 11.4733 9.22155 11.7619 9.2207H15.625C15.9565 9.2207 16.2745 9.3524 16.5089 9.58682C16.7433 9.82124 16.875 10.1392 16.875 10.4707V12.3457C16.875 12.6772 16.7433 12.9952 16.5089 13.2296C16.2745 13.464 15.9565 13.5957 15.625 13.5957H11.3875Z" fill="url(#paint7_linear_1_424)"/>
<path d="M22.5 9.2207H19.375C18.6846 9.2207 18.125 9.78035 18.125 10.4707V12.3457C18.125 13.0361 18.6846 13.5957 19.375 13.5957H22.5C23.1904 13.5957 23.75 13.0361 23.75 12.3457V10.4707C23.75 9.78035 23.1904 9.2207 22.5 9.2207Z" fill="url(#paint8_linear_1_424)"/>
<path d="M11.1494 10.3457L10.7744 12.2207C10.7558 12.3116 10.7577 12.4054 10.78 12.4955C10.8022 12.5855 10.8442 12.6695 10.9029 12.7413C10.9616 12.8131 11.0355 12.8709 11.1193 12.9106C11.2032 12.9503 11.2948 12.9708 11.3875 12.9707H15.625C15.7908 12.9707 15.9497 12.9049 16.0669 12.7876C16.1842 12.6704 16.25 12.5115 16.25 12.3457V10.4707C16.25 10.3049 16.1842 10.146 16.0669 10.0288C15.9497 9.91155 15.7908 9.8457 15.625 9.8457H11.7625C11.6183 9.84553 11.4785 9.89522 11.3668 9.98634C11.255 10.0775 11.1782 10.2044 11.1494 10.3457Z" fill="#D3DBEF"/>
<path d="M22.5 9.8457H19.375C19.0298 9.8457 18.75 10.1255 18.75 10.4707V12.3457C18.75 12.6909 19.0298 12.9707 19.375 12.9707H22.5C22.8452 12.9707 23.125 12.6909 23.125 12.3457V10.4707C23.125 10.1255 22.8452 9.8457 22.5 9.8457Z" fill="#D3DBEF"/>
<path d="M24.9656 25.4707H7.5C7.5 25.4707 1.25 22.3457 1.25 15.4707H13.75L16.875 18.5957H28.75L27.375 23.6282C27.2309 24.1569 26.917 24.6237 26.4817 24.9566C26.0463 25.2895 25.5137 25.4701 24.9656 25.4707Z" fill="url(#paint9_linear_1_424)"/>
<path d="M1.92969 19.2207C3.02147 21.8769 4.98621 24.0815 7.49969 25.4707H24.9653C25.5133 25.4701 26.046 25.2895 26.4813 24.9566C26.9167 24.6237 27.2306 24.1569 27.3747 23.6282L28.5791 19.2207H1.92969Z" fill="url(#paint10_linear_1_424)"/>
<defs>
<linearGradient id="paint0_linear_1_424" x1="17.8125" y1="3.55695" x2="17.8125" y2="7.93195" gradientUnits="userSpaceOnUse">
<stop stop-color="#3F4C56"/>
<stop offset="1" stop-color="#27333E"/>
</linearGradient>
<linearGradient id="paint1_linear_1_424" x1="16.25" y1="5.0282" x2="16.25" y2="7.65883" gradientUnits="userSpaceOnUse">
<stop stop-color="#3F4C56" stop-opacity="0"/>
<stop offset="1" stop-color="#141414"/>
</linearGradient>
<linearGradient id="paint2_linear_1_424" x1="13.125" y1="5.0282" x2="13.125" y2="7.65883" gradientUnits="userSpaceOnUse">
<stop stop-color="#3F4C56" stop-opacity="0"/>
<stop offset="1" stop-color="#141414"/>
</linearGradient>
<linearGradient id="paint3_linear_1_424" x1="19.375" y1="5.0282" x2="19.375" y2="7.65883" gradientUnits="userSpaceOnUse">
<stop stop-color="#3F4C56" stop-opacity="0"/>
<stop offset="1" stop-color="#141414"/>
</linearGradient>
<linearGradient id="paint4_linear_1_424" x1="22.5" y1="5.0282" x2="22.5" y2="7.65883" gradientUnits="userSpaceOnUse">
<stop stop-color="#3F4C56" stop-opacity="0"/>
<stop offset="1" stop-color="#141414"/>
</linearGradient>
<linearGradient id="paint5_linear_1_424" x1="17.1875" y1="7.39758" x2="17.1875" y2="19.2282" gradientUnits="userSpaceOnUse">
<stop stop-color="#9AA6E2"/>
<stop offset="1" stop-color="#7283D6"/>
</linearGradient>
<linearGradient id="paint6_linear_1_424" x1="15.625" y1="13.907" x2="15.625" y2="18.8301" gradientUnits="userSpaceOnUse">
<stop stop-color="#7283D6" stop-opacity="0"/>
<stop offset="1" stop-color="#4D62CB"/>
</linearGradient>
<linearGradient id="paint7_linear_1_424" x1="13.5063" y1="8.45883" x2="13.5063" y2="13.5763" gradientUnits="userSpaceOnUse">
<stop stop-color="#4D62CB"/>
<stop offset="1" stop-color="#7283D6" stop-opacity="0"/>
</linearGradient>
<linearGradient id="paint8_linear_1_424" x1="20.9375" y1="8.45883" x2="20.9375" y2="13.5763" gradientUnits="userSpaceOnUse">
<stop stop-color="#4D62CB"/>
<stop offset="1" stop-color="#7283D6" stop-opacity="0"/>
</linearGradient>
<linearGradient id="paint9_linear_1_424" x1="15" y1="15.4707" x2="15" y2="25.5226" gradientUnits="userSpaceOnUse">
<stop stop-color="#3F4C56"/>
<stop offset="1" stop-color="#27333E"/>
</linearGradient>
<linearGradient id="paint10_linear_1_424" x1="15.2547" y1="19.572" x2="15.2547" y2="25.5882" gradientUnits="userSpaceOnUse">
<stop stop-color="#3F4C56" stop-opacity="0"/>
<stop offset="1" stop-color="#141414"/>
</linearGradient>
</defs>
</svg>
