<svg width="26" height="26" viewBox="0 0 26 26" fill="none" xmlns="http://www.w3.org/2000/svg">
<path d="M23.7631 2.31821H1.74035V23.7614H23.7631V2.31821Z" fill="url(#paint0_linear_1_335)"/>
<path d="M17.9668 23.1818V17.9659C17.9668 17.3257 17.4479 16.8068 16.8077 16.8068H8.69407C8.05392 16.8068 7.53498 17.3257 7.53498 17.9659V23.1818C7.53498 23.8219 8.05392 24.3409 8.69407 24.3409H16.8077C17.4479 24.3409 17.9668 23.8219 17.9668 23.1818Z" fill="url(#paint1_linear_1_335)"/>
<path d="M7.53238 5.21593H5.2142C4.89413 5.21593 4.63465 5.4754 4.63465 5.79547V7.53411C4.63465 7.85418 4.89413 8.11365 5.2142 8.11365H7.53238C7.85246 8.11365 8.11193 7.85418 8.11193 7.53411V5.79547C8.11193 5.4754 7.85246 5.21593 7.53238 5.21593Z" fill="white"/>
<path d="M13.9074 5.21593H11.5892C11.2691 5.21593 11.0097 5.4754 11.0097 5.79547V7.53411C11.0097 7.85418 11.2691 8.11365 11.5892 8.11365H13.9074C14.2275 8.11365 14.4869 7.85418 14.4869 7.53411V5.79547C14.4869 5.4754 14.2275 5.21593 13.9074 5.21593Z" fill="white"/>
<path d="M20.2824 5.21593H17.9642C17.6441 5.21593 17.3847 5.4754 17.3847 5.79547V7.53411C17.3847 7.85418 17.6441 8.11365 17.9642 8.11365H20.2824C20.6025 8.11365 20.8619 7.85418 20.8619 7.53411V5.79547C20.8619 5.4754 20.6025 5.21593 20.2824 5.21593Z" fill="white"/>
<path d="M7.53249 11.0117H5.21431C4.89424 11.0117 4.63477 11.2712 4.63477 11.5913V13.3299C4.63477 13.65 4.89424 13.9094 5.21431 13.9094H7.53249C7.85257 13.9094 8.11204 13.65 8.11204 13.3299V11.5913C8.11204 11.2712 7.85257 11.0117 7.53249 11.0117Z" fill="white"/>
<path d="M13.9075 11.0117H11.5893C11.2692 11.0117 11.0098 11.2712 11.0098 11.5913V13.3299C11.0098 13.65 11.2692 13.9094 11.5893 13.9094H13.9075C14.2276 13.9094 14.487 13.65 14.487 13.3299V11.5913C14.487 11.2712 14.2276 11.0117 13.9075 11.0117Z" fill="white"/>
<path d="M16.8084 17.3867H8.69478C8.37471 17.3867 8.11523 17.6462 8.11523 17.9663V23.1822C8.11523 23.5022 8.37471 23.7617 8.69478 23.7617H16.8084C17.1285 23.7617 17.388 23.5022 17.388 23.1822V17.9663C17.388 17.6462 17.1285 17.3867 16.8084 17.3867Z" fill="url(#paint2_linear_1_335)"/>
<path d="M8.11535 21.4432V23.1818C8.11535 23.3355 8.1764 23.483 8.28509 23.5916C8.39378 23.7003 8.54119 23.7614 8.69489 23.7614H16.8085C16.9622 23.7614 17.1096 23.7003 17.2183 23.5916C17.327 23.483 17.3881 23.3355 17.3881 23.1818V21.4432H8.11535Z" fill="url(#paint3_linear_1_335)"/>
<path d="M20.2825 11.0117H17.9643C17.6442 11.0117 17.3848 11.2712 17.3848 11.5913V13.3299C17.3848 13.65 17.6442 13.9094 17.9643 13.9094H20.2825C20.6026 13.9094 20.862 13.65 20.862 13.3299V11.5913C20.862 11.2712 20.6026 11.0117 20.2825 11.0117Z" fill="white"/>
<path d="M24.9205 23.1818H0.579545C0.259471 23.1818 0 23.4413 0 23.7613V24.9204C0 25.2405 0.259471 25.5 0.579545 25.5H24.9205C25.2405 25.5 25.5 25.2405 25.5 24.9204V23.7613C25.5 23.4413 25.2405 23.1818 24.9205 23.1818Z" fill="url(#paint4_linear_1_335)"/>
<path d="M24.9205 0H0.579545C0.259471 0 0 0.259471 0 0.579545V1.73864C0 2.05871 0.259471 2.31818 0.579545 2.31818H24.9205C25.2405 2.31818 25.5 2.05871 25.5 1.73864V0.579545C25.5 0.259471 25.2405 0 24.9205 0Z" fill="url(#paint5_linear_1_335)"/>
<path d="M0 24.9208C0 25.0745 0.0610591 25.2219 0.169745 25.3306C0.278431 25.4393 0.42584 25.5004 0.579545 25.5004H24.9205C25.0742 25.5004 25.2216 25.4393 25.3303 25.3306C25.4389 25.2219 25.5 25.0745 25.5 24.9208V23.7617H0V24.9208Z" fill="url(#paint6_linear_1_335)"/>
<path d="M0 0.652344V1.73899C0 1.8927 0.0610591 2.04011 0.169745 2.14879C0.278431 2.25748 0.42584 2.31854 0.579545 2.31854H24.9205C25.0742 2.31854 25.2216 2.25748 25.3303 2.14879C25.4389 2.04011 25.5 1.8927 25.5 1.73899V0.652344H0Z" fill="url(#paint7_linear_1_335)"/>
<defs>
<linearGradient id="paint0_linear_1_335" x1="12.7517" y1="2.70112" x2="12.7517" y2="24.008" gradientUnits="userSpaceOnUse">
<stop stop-color="#FF4343"/>
<stop offset="1" stop-color="#E40000"/>
</linearGradient>
<linearGradient id="paint1_linear_1_335" x1="12.7509" y1="16.8792" x2="12.7509" y2="24.1728" gradientUnits="userSpaceOnUse">
<stop stop-color="#3F4C56"/>
<stop offset="1" stop-color="#27333E"/>
</linearGradient>
<linearGradient id="paint2_linear_1_335" x1="12.7516" y1="17.5461" x2="12.7516" y2="23.7764" gradientUnits="userSpaceOnUse">
<stop stop-color="#FFCA4F"/>
<stop offset="1" stop-color="#F7AE30"/>
</linearGradient>
<linearGradient id="paint3_linear_1_335" x1="12.7517" y1="21.4977" x2="12.7517" y2="23.2189" gradientUnits="userSpaceOnUse">
<stop stop-color="#B35E3E" stop-opacity="0"/>
<stop offset="1" stop-color="#96492D"/>
</linearGradient>
<linearGradient id="paint4_linear_1_335" x1="12.75" y1="23.2542" x2="12.75" y2="25.1824" gradientUnits="userSpaceOnUse">
<stop stop-color="#9AA6E2"/>
<stop offset="1" stop-color="#7283D6"/>
</linearGradient>
<linearGradient id="paint5_linear_1_335" x1="12.75" y1="0.0365114" x2="12.75" y2="2.39063" gradientUnits="userSpaceOnUse">
<stop stop-color="#9AA6E2"/>
<stop offset="1" stop-color="#7283D6"/>
</linearGradient>
<linearGradient id="paint6_linear_1_335" x1="12.75" y1="23.8162" x2="12.75" y2="25.2622" gradientUnits="userSpaceOnUse">
<stop stop-color="#7283D6" stop-opacity="0"/>
<stop offset="1" stop-color="#4D62CB"/>
</linearGradient>
<linearGradient id="paint7_linear_1_335" x1="-1.15909" y1="0.678423" x2="12.75" y2="2.3707" gradientUnits="userSpaceOnUse">
<stop stop-color="#7283D6" stop-opacity="0"/>
<stop offset="1" stop-color="#4D62CB"/>
</linearGradient>
</defs>
</svg>
