<svg width="20" height="21" viewBox="0 0 20 21" fill="none" xmlns="http://www.w3.org/2000/svg">
<path d="M19.12 7.84572L12.12 0.845722C11.5477 0.302714 10.7889 0 10 0C9.2111 0 8.45228 0.302714 7.88 0.845722L0.88 7.84572C0.31723 8.40779 0.000700208 9.17034 0 9.96572V17.1457C0 17.9414 0.316071 18.7044 0.87868 19.267C1.44129 19.8297 2.20435 20.1457 3 20.1457H7H7.63739C8 20.1457 8.05498 20.1457 9.05498 20.1457C9.16791 20.1457 9.17599 20.1457 9.97164 20.1457C10.7673 20.1457 10.1994 20.1457 10.6994 20.1457C11.1994 20.1457 11.4589 20.1457 11.9589 20.1457H13H17C17.7956 20.1457 18.5587 19.8297 19.1213 19.267C19.6839 18.7044 20 17.9414 20 17.1457V9.96572C19.9993 9.17034 19.6828 8.40779 19.12 7.84572Z" fill="#4757E4"/>
<path d="M12.1818 14.0557H7.81818C7.37091 14.0557 7 14.3957 7 14.8057C7 15.2157 7.37091 15.5557 7.81818 15.5557H12.1818C12.6291 15.5557 13 15.2157 13 14.8057C13 14.3957 12.6291 14.0557 12.1818 14.0557Z" fill="white"/>
</svg>
