<svg width="20" height="17" viewBox="0 0 20 17" fill="none" xmlns="http://www.w3.org/2000/svg">
<path d="M17.663 1.25C16.713 0.45 15.523 0 14.313 0C12.363 0 10.663 1.09 9.73305 2.72C8.80305 1.09 7.09305 0 5.15305 0C4.13305 0 3.13305 0.3 2.28305 0.88C0.283046 2.22 -0.526954 5.01 0.353046 7.52C0.763046 8.69 1.31305 9.8 1.99305 10.81C4.37305 14.38 7.73305 15.88 9.51305 16.46C9.59305 16.48 9.66305 16.5 9.74305 16.5C9.82305 16.5 9.90305 16.49 9.97305 16.46C11.763 15.88 15.113 14.37 17.493 10.81C18.173 9.79 18.723 8.68 19.143 7.5C19.953 5.19 19.363 2.67 17.683 1.25H17.663ZM17.713 7.01C17.343 8.07 16.843 9.07 16.233 9.98C14.203 13.02 11.373 14.39 9.72305 14.96C8.07305 14.39 5.25305 13.02 3.21305 9.98C2.60305 9.07 2.11305 8.08 1.74305 7.03C1.08305 5.15 1.65305 3.09 3.09305 2.13C3.70305 1.72 4.41305 1.51 5.13305 1.51C7.24305 1.51 8.96305 3.34 8.96305 5.58C8.96305 5.99 9.30305 6.33 9.71305 6.33C10.123 6.33 10.463 5.99 10.463 5.58C10.463 3.33 12.183 1.51 14.293 1.51C15.163 1.51 15.983 1.82 16.673 2.4C17.883 3.43 18.293 5.28 17.693 7.02L17.713 7.01Z" fill="#545C5C"/>
</svg>
