<svg width="16" height="16" viewBox="0 0 16 16" fill="none" xmlns="http://www.w3.org/2000/svg">
<path d="M14.171 4.17103C14.0135 4.24721 13.8927 4.3828 13.8352 4.54799C13.7776 4.71319 13.788 4.89448 13.864 5.05203C14.2972 5.94655 14.5206 6.92814 14.517 7.92204C14.517 9.22739 14.1299 10.5034 13.4047 11.5888C12.6795 12.6742 11.6487 13.5201 10.4427 14.0196C9.23673 14.5192 7.90969 14.6499 6.62941 14.3952C5.34914 14.1406 4.17313 13.512 3.2501 12.5889C2.32708 11.6659 1.69849 10.4899 1.44382 9.20963C1.18916 7.92936 1.31986 6.60232 1.8194 5.39632C2.31894 4.19033 3.16488 3.15955 4.25024 2.43434C5.33561 1.70912 6.61165 1.32203 7.91701 1.32203C9.40621 1.31446 10.8531 1.81699 12.017 2.74604C12.0845 2.80274 12.1627 2.84534 12.247 2.87132C12.3312 2.8973 12.4199 2.90613 12.5076 2.8973C12.5953 2.88847 12.6804 2.86215 12.7578 2.81989C12.8352 2.77763 12.9033 2.7203 12.9581 2.65127C13.013 2.58224 13.0535 2.50293 13.0772 2.418C13.1009 2.33307 13.1073 2.24425 13.0961 2.1568C13.0849 2.06934 13.0563 1.98501 13.012 1.90879C12.9676 1.83257 12.9085 1.76601 12.838 1.71303C11.433 0.599353 9.69156 -0.00457709 7.89868 2.61208e-05C6.10579 0.00462933 4.36752 0.617494 2.96821 1.73838C1.56889 2.85926 0.591342 4.42181 0.195464 6.17045C-0.200415 7.91909 0.00880599 9.75032 0.788905 11.3646C1.569 12.9789 2.87381 14.2807 4.48989 15.057C6.10597 15.8334 7.93768 16.0384 9.6854 15.6385C11.4331 15.2386 12.9934 14.2574 14.1111 12.8555C15.2287 11.4536 15.8375 9.71393 15.838 7.92103C15.842 6.72792 15.5735 5.54964 15.053 4.47604C15.0152 4.39801 14.9624 4.32822 14.8976 4.27064C14.8328 4.21307 14.7572 4.16884 14.6753 4.14051C14.5934 4.11218 14.5066 4.10029 14.4201 4.10553C14.3336 4.11077 14.2489 4.13303 14.171 4.17103Z" fill="#FFC400"/>
<path d="M7.91901 2.64307C7.74397 2.64307 7.57609 2.7126 7.45232 2.83637C7.32855 2.96015 7.25901 3.12803 7.25901 3.30307V7.92207C7.25901 8.09711 7.32855 8.26498 7.45232 8.38876C7.57609 8.51253 7.74397 8.58207 7.91901 8.58207H11.219C11.3941 8.58207 11.5619 8.51253 11.6857 8.38876C11.8095 8.26498 11.879 8.09711 11.879 7.92207C11.879 7.74702 11.8095 7.57915 11.6857 7.45538C11.5619 7.3316 11.3941 7.26207 11.219 7.26207H8.57901V3.30307C8.57901 3.12803 8.50947 2.96015 8.3857 2.83637C8.26193 2.7126 8.09405 2.64307 7.91901 2.64307Z" fill="#FFC400"/>
</svg>
