<svg width="30" height="30" viewBox="0 0 30 30" fill="none" xmlns="http://www.w3.org/2000/svg">
<path d="M11.0145 27.4023L6.91697 22.4851L2 18.389L2.7968 17.5922C3.15633 17.2325 3.62413 17.0011 4.12813 16.9336C4.63213 16.866 5.14436 16.9661 5.58588 17.2184L9.78545 19.6182L12.1851 23.818C12.4374 24.2595 12.5374 24.7718 12.4699 25.2758C12.4023 25.7798 12.1709 26.2477 11.8113 26.6072L11.0145 27.4023Z" fill="url(#paint0_linear_1_352)"/>
<path d="M4.96409 16.9796C4.58063 16.8885 4.18025 16.897 3.80095 17.0041C3.42165 17.1112 3.076 17.3134 2.7968 17.5916L2 18.389L6.91697 22.4868L11.0145 27.4023L11.8113 26.6055C12.0895 26.3263 12.2917 25.9806 12.3988 25.6013C12.5059 25.222 12.5144 24.8216 12.4233 24.4381L4.96409 16.9796Z" fill="url(#paint1_linear_1_352)"/>
<path d="M26.7036 20.3605L21.7357 7.61913L8.99557 2.65146C8.576 2.48797 8.11791 2.45023 7.67725 2.54285C7.23658 2.63548 6.83244 2.85445 6.51419 3.17303L4.71777 4.96955L16.8187 12.5364L24.3851 24.6391L26.1815 22.8426C26.5003 22.5244 26.7194 22.1201 26.8121 21.6793C26.9049 21.2385 26.8671 20.7802 26.7036 20.3605Z" fill="url(#paint2_linear_1_352)"/>
<path d="M25.4716 17.2027L12.1515 3.88178L8.99557 2.65146C8.576 2.48797 8.11791 2.45023 7.67725 2.54285C7.23659 2.63548 6.83244 2.85445 6.51419 3.17303L4.71777 4.96955L16.8187 12.5364L24.3851 24.6391L26.1815 22.8426C26.4999 22.5244 26.7188 22.1203 26.8115 21.6798C26.9041 21.2392 26.8664 20.7812 26.703 20.3617L25.4716 17.2027Z" fill="url(#paint3_linear_1_352)"/>
<path d="M5.99755 23.3503C5.65798 23.012 5.4549 22.5606 5.42711 22.0821C5.39932 21.6036 5.54876 21.1316 5.84688 20.7563C8.35086 17.6049 17.4326 6.99555 20.3388 4.08982C21.4178 3.01075 23.563 2.28634 24.9028 1.91776C25.2523 1.82255 25.6209 1.82168 25.9708 1.91523C26.3208 2.00878 26.6397 2.19342 26.8951 2.45035C27.152 2.70576 27.3367 3.0247 27.4302 3.37469C27.5237 3.72468 27.5229 4.09321 27.4277 4.44275C27.0591 5.78203 26.3353 7.92742 25.2557 9.00707C22.2685 11.9945 11.7241 21.0165 8.58961 23.5021C8.21433 23.7996 7.74269 23.9486 7.26462 23.9206C6.78656 23.8926 6.33553 23.6896 5.99755 23.3503Z" fill="url(#paint4_linear_1_352)"/>
<path d="M24.4348 7.1283C24.2811 7.1283 24.1337 7.06725 24.025 6.95856C23.9163 6.84988 23.8553 6.70248 23.8553 6.54878C23.8607 6.25737 23.7774 5.97119 23.6165 5.72817C23.3737 5.5677 23.0882 5.48409 22.7971 5.48825C22.6434 5.48825 22.496 5.4272 22.3874 5.31851C22.2787 5.20983 22.2176 5.06243 22.2176 4.90873C22.2176 4.75503 22.2787 4.60763 22.3874 4.49894C22.496 4.39026 22.6434 4.32921 22.7971 4.32921C23.3944 4.32446 23.9744 4.52956 24.4359 4.90873C24.8151 5.37028 25.0202 5.95031 25.0154 6.54762C25.0156 6.62392 25.0006 6.6995 24.9715 6.77002C24.9424 6.84054 24.8996 6.90461 24.8457 6.95857C24.7917 7.01252 24.7277 7.05528 24.6571 7.08441C24.5866 7.11354 24.5111 7.12846 24.4348 7.1283Z" fill="url(#paint5_linear_1_352)"/>
<path d="M12.7295 12.5752C9.85636 15.904 7.06669 19.2188 5.84455 20.7569C5.54783 21.1325 5.3993 21.604 5.42714 22.0819C5.45498 22.5598 5.65724 23.0108 5.99557 23.3495C6.3339 23.6881 6.78475 23.8908 7.26258 23.919C7.74042 23.9472 8.212 23.7991 8.58785 23.5027C10.1235 22.2857 13.4393 19.4964 16.7726 16.6185L12.7295 12.5752Z" fill="url(#paint6_linear_1_352)"/>
<defs>
<linearGradient id="paint0_linear_1_352" x1="9.69389" y1="19.6819" x2="6.03593" y2="23.3762" gradientUnits="userSpaceOnUse">
<stop stop-color="#9AA6E2"/>
<stop offset="1" stop-color="#7283D6"/>
</linearGradient>
<linearGradient id="paint1_linear_1_352" x1="8.55229" y1="20.8352" x2="6.08352" y2="23.3282" gradientUnits="userSpaceOnUse">
<stop stop-color="#7283D6" stop-opacity="0"/>
<stop offset="1" stop-color="#4D62CB"/>
</linearGradient>
<linearGradient id="paint2_linear_1_352" x1="21.8232" y1="7.27895" x2="15.7381" y2="13.6053" gradientUnits="userSpaceOnUse">
<stop stop-color="#9AA6E2"/>
<stop offset="1" stop-color="#7283D6"/>
</linearGradient>
<linearGradient id="paint3_linear_1_352" x1="18.4198" y1="10.8181" x2="14.8233" y2="14.557" gradientUnits="userSpaceOnUse">
<stop stop-color="#7283D6" stop-opacity="0"/>
<stop offset="1" stop-color="#4D62CB"/>
</linearGradient>
<linearGradient id="paint4_linear_1_352" x1="26.7132" y1="2.57726" x2="5.99518" y2="23.5838" gradientUnits="userSpaceOnUse">
<stop stop-color="#EAECF7"/>
<stop offset="1" stop-color="#CDD3F1"/>
</linearGradient>
<linearGradient id="paint5_linear_1_352" x1="24.4788" y1="4.79978" x2="23.0659" y2="6.32094" gradientUnits="userSpaceOnUse">
<stop stop-color="#9AA6E2"/>
<stop offset="1" stop-color="#7283D6"/>
</linearGradient>
<linearGradient id="paint6_linear_1_352" x1="14.7003" y1="14.6476" x2="6.00746" y2="23.4616" gradientUnits="userSpaceOnUse">
<stop stop-color="#E2E5F4" stop-opacity="0"/>
<stop offset="1" stop-color="#9AA6E2"/>
</linearGradient>
</defs>
</svg>
