<svg width="17" height="17" viewBox="0 0 17 17" fill="none" xmlns="http://www.w3.org/2000/svg">
<path d="M17 15.2996C17 12.0195 14.3302 9.34961 11.05 9.34961H5.95C2.66985 9.34961 0 12.0195 0 15.2996V16.9996H17V15.2996ZM1.7 15.2996C1.7 12.9562 3.60655 11.0496 5.95 11.0496H11.05C13.3935 11.0496 15.3 12.9562 15.3 15.2996H1.7Z" fill="#101720"/>
<path d="M12.7502 4.25C12.7502 1.90655 10.8436 0 8.50015 0C6.1567 0 4.25015 1.90655 4.25015 4.25C4.25015 6.59345 6.1567 8.5 8.50015 8.5C10.8436 8.5 12.7502 6.59345 12.7502 4.25ZM5.95015 4.25C5.95015 2.8441 7.09425 1.7 8.50015 1.7C9.90605 1.7 11.0502 2.8441 11.0502 4.25C11.0502 5.6559 9.90605 6.8 8.50015 6.8C7.09425 6.8 5.95015 5.6559 5.95015 4.25Z" fill="#101720"/>
</svg>
