<svg width="21" height="20" viewBox="0 0 21 20" fill="none" xmlns="http://www.w3.org/2000/svg">
<path d="M10.25 10.25C13.01 10.25 15.25 8.01 15.25 5.25C15.25 2.49 13.01 0.25 10.25 0.25C7.49 0.25 5.25 2.49 5.25 5.25C5.25 8.01 7.49 10.25 10.25 10.25ZM10.25 1.25C12.46 1.25 14.25 3.04 14.25 5.25C14.25 7.46 12.46 9.25 10.25 9.25C8.04 9.25 6.25 7.46 6.25 5.25C6.25 3.04 8.04 1.25 10.25 1.25Z" fill="#545C5C" stroke="#545C5C" stroke-width="0.5"/>
<path d="M15.5833 12.25H4.91667C2.34333 12.25 0.25 13.82 0.25 15.75C0.25 17.68 2.34333 19.25 4.91667 19.25H15.5833C18.1567 19.25 20.25 17.68 20.25 15.75C20.25 13.82 18.1567 12.25 15.5833 12.25ZM15.5833 18.25H4.91667C3.07667 18.25 1.58333 17.13 1.58333 15.75C1.58333 14.37 3.07667 13.25 4.91667 13.25H15.5833C17.4233 13.25 18.9167 14.37 18.9167 15.75C18.9167 17.13 17.4233 18.25 15.5833 18.25Z" fill="#545C5C" stroke="#545C5C" stroke-width="0.5"/>
</svg>
