<svg width="390" height="267" viewBox="0 0 390 267" fill="none" xmlns="http://www.w3.org/2000/svg">
<g clip-path="url(#clip0_1_1343)">
<path d="M275.919 0.441062C266.915 3.00391 266.776 4.92608 274.811 14.4086C282.985 23.8911 290.327 36.1928 290.327 40.1652C290.327 42.2155 287.833 40.5496 278.967 32.6048C256.525 12.4865 232.281 3.64464 210.67 7.74519C198.756 9.92361 190.166 14.793 178.114 25.6851C168.278 34.6551 157.888 47.213 159.273 48.4945C159.689 48.7507 164.815 47.4693 170.772 45.6753C194.184 38.4994 212.886 36.8335 230.896 40.2934C242.255 42.5999 256.247 48.4945 262.62 53.7483L267.469 57.7207L255.693 56.8237C237.822 55.286 205.959 55.7986 198.894 57.5926C189.058 60.1554 172.85 67.5877 165.369 72.8415C151.377 82.4522 136.554 105.518 131.566 124.611C131.151 126.661 130.319 128.199 129.765 128.199C129.211 128.199 126.579 126.149 123.947 123.586C105.937 106.287 86.1269 108.337 60.6365 130.121C53.4327 136.272 51.9089 137.169 52.7401 134.606C56.4806 123.073 67.5634 112.822 96.24 94.3695C114.388 82.7085 121.315 77.7109 121.315 76.0451C121.315 74.8918 102.474 76.9421 88.3435 79.6331C62.9916 84.3743 48.7227 90.397 35.839 101.674C29.0508 107.696 21.5699 118.716 21.5699 122.945C21.5699 123.97 25.0332 127.943 29.3278 131.659C33.6223 135.503 36.8086 138.835 36.393 139.347C35.9774 139.732 31.4059 138.066 26.1416 135.759C3.69897 125.636 -17.2198 133.709 -32.3201 158.569C-34.4348 161.789 -36.3317 165.127 -38 168.564C-38 168.948 -34.398 167.026 -29.9649 164.335C-13.3408 153.828 -2.81219 150.624 20.046 149.214C35.5619 148.189 36.5316 150.24 21.7084 152.546C2.45206 155.493 -7.93807 164.848 -14.8648 185.222C-17.3584 192.398 -17.9125 197.268 -17.9125 209.569C-17.9125 223.793 -15.8344 235.839 -13.3408 235.839C-12.7866 235.839 -10.9857 230.841 -9.18474 224.562C-5.02871 209.185 3.1447 194.32 11.4568 187.016C18.522 180.737 22.4011 177.021 31.1288 168.179C36.8087 162.413 41.3803 160.619 37.6398 165.617C34.5921 169.461 34.8692 175.355 38.194 180.353C41.7959 185.991 46.0905 188.298 56.2035 189.964C62.1605 190.989 65.3468 192.27 66.5936 194.064C70.1955 199.19 82.3866 257.879 82.3866 270.437L82.5251 277.485L72.412 282.867C52.1859 293.503 16.0285 320.797 16.0285 325.41C16.0285 328.229 22.4011 326.692 38.7482 319.644C78.9819 302.445 122.711 293.359 167.031 292.99C189.335 292.862 194.323 293.503 238.238 302.601C275.642 310.418 288.526 312.34 312.769 314.005C333.965 315.543 359.04 314.134 374.002 310.674C386.47 307.855 387.44 306.958 382.591 303.37C356.546 284.789 327.316 269.796 302.657 262.236C289.634 258.264 268.716 254.035 251.26 251.856C244.611 251.088 244.611 251.088 244.611 246.09C244.611 238.401 248.628 210.723 251.676 198.037C253.2 191.63 257.217 173.946 260.542 158.697C268.161 124.483 273.426 109.106 280.768 98.8544C287.279 89.7563 297.531 81.4271 300.994 82.3241C307.367 83.8618 340.476 106.543 351.559 116.923C362.226 126.789 364.581 129.865 371.231 142.551C376.64 152.923 380.865 163.788 383.838 174.971C386.608 184.838 389.102 193.039 389.379 193.423C390.626 194.449 394.505 183.813 396.583 173.818C399.492 159.85 398.384 133.965 394.228 119.87C390.349 106.159 381.483 89.5 374.417 82.4522C365.908 74.3667 354.94 68.8691 342.97 66.6907C328.285 64.5123 320.805 62.7183 320.805 61.4368C320.805 58.1051 359.179 61.3087 377.327 66.1781C391.596 70.0224 399.631 73.7385 416.116 84.1181L429 92.191L421.104 78.0954C408.774 55.7986 393.397 42.0874 373.725 36.0647C358.486 31.3234 345.464 32.8611 326.346 41.9592C310.83 49.1352 311.523 47.3412 332.58 27.2229C343.663 16.7152 343.663 16.2026 332.857 9.41103C321.497 2.3632 312.077 -0.199603 295.868 -0.712172C286.864 -0.968457 279.244 -0.584077 275.919 0.441062ZM275.919 87.3216C265.945 97.3167 258.048 112.181 248.074 140.116C243.918 151.905 238.515 165.488 236.16 170.23C229.095 184.454 225.493 195.474 218.843 223.024C215.38 237.504 212.193 249.678 211.778 250.191C211.501 250.831 207.899 251.216 204.02 251.216C188.365 251.216 145.143 258.392 119.098 265.44C111.34 267.49 104.414 269.156 103.859 269.156C103.167 269.156 100.812 261.723 98.595 252.625C96.517 243.527 93.1923 232.635 91.2528 228.534C83.3564 211.363 75.5984 189.707 74.213 181.122C72.5506 171.255 68.6716 164.463 63.4072 162.029C58.1429 159.594 61.1907 159.338 76.568 161.132C96.9326 163.31 103.721 164.848 115.635 170.102C127.133 175.099 144.727 189.707 152.208 200.343L156.641 206.75L157.057 200.728C157.611 193.552 153.316 178.815 148.467 171.255C143.48 163.438 133.644 155.493 122.977 150.88C113.695 146.78 113.557 146.78 91.2528 146.78C66.4551 146.78 65.6239 146.395 76.8452 139.219C88.8977 131.531 101.504 130.249 117.851 134.991L127.549 137.938L128.241 145.498L128.934 153.187L152.762 131.787C184.071 103.852 201.111 93.3443 224.107 87.706C230.896 86.1683 271.902 80.4019 281.876 79.6331C282.846 79.5049 280.214 82.9648 275.919 87.3216Z" fill="white" fill-opacity="0.18"/>
</g>
<defs>
<clipPath id="clip0_1_1343">
<rect width="467" height="267" fill="white" transform="translate(-38)"/>
</clipPath>
</defs>
</svg>
